<svg aria-hidden="true" style="position: absolute; width: 0; height: 0; overflow: hidden;" version="1.1" xmlns="http://www.w3.org/2000/svg" xmlns:xlink="http://www.w3.org/1999/xlink">
<defs>
<symbol id="icon-cross" viewBox="0 0 32 32">
<path d="M9.5 1.4c-10.1 4.4-12.5 17.8-4.6 25.7 6.5 6.5 15.7 6.5 22.2 0 12.4-12.4-1.5-32.7-17.6-25.7zM23.1 4.3c11.2 7.4 7.5 23.7-5.8 25.3-4.8 0.6-10-2-13-6.5-7.9-11.8 7-26.7 18.8-18.8z"></path>
<path d="M10 10.7c0 0.4 1 1.7 2.2 3l2.1 2.3-2.3 2.5c-3.1 3.2-1.7 4.6 1.5 1.5l2.5-2.3 2.5 2.3c3.2 3.1 4.6 1.7 1.5-1.5l-2.3-2.5 2.3-2.5c3.1-3.2 1.7-4.6-1.5-1.5l-2.5 2.3-2.3-2.1c-2.4-2.2-3.7-2.8-3.7-1.5z"></path>
</symbol>
<symbol id="icon-menu" viewBox="0 0 32 32">
<path d="M1.5 5.1c-1.5 2.4 1.7 2.9 15.1 2.7 11.6-0.3 13.9-0.6 13.9-1.8s-2.4-1.5-14.2-1.8c-9.6-0.2-14.4 0.1-14.8 0.9z"></path>
<path d="M1.5 15.1c-1.5 2.4 1.7 2.9 15.1 2.7 11.6-0.3 13.9-0.6 13.9-1.8s-2.4-1.5-14.2-1.8c-9.6-0.2-14.4 0.1-14.8 0.9z"></path>
<path d="M1.5 25.1c-1.5 2.4 1.7 2.9 15.1 2.7 11.6-0.3 13.9-0.6 13.9-1.8s-2.4-1.5-14.2-1.8c-9.6-0.2-14.4 0.1-14.8 0.9z"></path>
</symbol>
</defs>
</svg>
